<svg width="24" height="24" viewBox="0 0 24 24" fill="none" xmlns="http://www.w3.org/2000/svg">
<path fill-rule="evenodd" clip-rule="evenodd" d="M10.5 16C7.4625 16 5 13.5375 5 10.5C5 7.4625 7.4625 5 10.5 5C13.5375 5 16 7.4625 16 10.5C16 13.5375 13.5375 16 10.5 16M20.707 19.293L16.4575 15.0435C17.421 13.7815 18 12.2105 18 10.5C18 6.358 14.642 3 10.5 3C6.358 3 3 6.358 3 10.5C3 14.642 6.358 18 10.5 18C12.21 18 13.7815 17.4215 15.043 16.4575L19.293 20.707C19.6835 21.0975 20.3165 21.0975 20.707 20.707C21.0975 20.3165 21.0975 19.6835 20.707 19.293" fill="white"/>
</svg>
